<?xml version="1.0" standalone="no"?>
<!DOCTYPE svg PUBLIC "-//W3C//DTD SVG 20010904//EN"
 "http://www.w3.org/TR/2001/REC-SVG-20010904/DTD/svg10.dtd">
<svg version="1.0" xmlns="http://www.w3.org/2000/svg"
 width="16.000000pt" height="16.000000pt" viewBox="0 0 16.000000 16.000000"
 preserveAspectRatio="xMidYMid meet">
<metadata>
Created by potrace 1.11, written by Peter Selinger 2001-2013
</metadata>
<g transform="translate(0.000000,16.000000) scale(0.002667,-0.002667)"
fill="#000000" stroke="none">
<path d="M2996 5992 c-3 -6 -34 -26 -69 -45 -80 -44 -114 -64 -217 -124 -98
-58 -625 -361 -655 -378 -11 -6 -39 -23 -62 -38 -24 -15 -45 -27 -47 -27 -2 0
-71 -39 -153 -86 -81 -48 -168 -98 -193 -112 -25 -14 -74 -42 -109 -64 -34
-21 -64 -38 -66 -38 -1 0 -40 -22 -86 -49 -46 -26 -140 -80 -209 -120 -69 -39
-132 -75 -140 -80 -8 -5 -55 -33 -105 -61 -49 -29 -178 -103 -285 -166 l-196
-113 1 -1497 c0 -1113 3 -1498 11 -1501 7 -2 40 -21 75 -42 35 -21 143 -83
239 -138 96 -56 274 -158 395 -228 121 -70 236 -136 255 -147 19 -11 49 -27
65 -37 48 -29 988 -571 1245 -719 129 -74 252 -146 273 -159 l38 -24 47 27
c26 14 67 38 92 52 25 14 230 132 455 262 226 131 511 296 635 367 327 188
1139 657 1180 681 19 12 53 30 75 42 22 12 58 34 80 48 l40 28 0 1487 c0 1476
0 1488 -20 1506 -11 10 -67 45 -125 78 -58 33 -179 103 -270 155 -91 53 -181
105 -200 115 -19 11 -75 44 -125 73 -49 29 -108 63 -130 75 -22 13 -96 56
-165 95 -69 40 -138 80 -155 90 -126 72 -1164 671 -1254 724 -62 36 -116 66
-119 66 -3 0 -13 7 -23 16 -10 9 -19 11 -23 6z"/>
</g>
</svg>
